<svg width="230" height="200" viewBox="0 0 230 200" fill="none" xmlns="http://www.w3.org/2000/svg">
<g clip-path="url(#clip0)">
<path opacity="0.1" d="M92.0026 185.315C135.625 185.315 170.988 184.053 170.988 182.497C170.988 180.94 135.625 179.678 92.0026 179.678C48.3804 179.678 13.0176 180.94 13.0176 182.497C13.0176 184.053 48.3804 185.315 92.0026 185.315Z" fill="#FF8822"/>
<path opacity="0.1" d="M70.8404 7.91456C78.6244 0.971298 90.8427 -0.444199 101.964 0.104916C136.898 1.84256 168.433 18.726 195.71 37.8255C205.583 44.7395 215.305 52.1903 221.716 61.7108C234.764 81.0933 230.892 107.941 212.755 123.917C206.583 129.347 199.103 133.513 191.415 137.203C177.763 143.768 163.016 149.037 147.514 150.538C136.457 151.607 125.267 150.736 114.275 149.245C83.5512 145.069 53.4198 135.849 28.1544 120.076C17.0745 113.157 6.63097 104.556 2.06983 93.3642C-2.49131 82.172 0.421871 67.9902 11.7333 61.3667C16.4139 58.626 22.0087 57.3886 27.4864 56.227C35.5483 54.5186 43.7417 52.8322 51.0162 49.3545C58.5319 45.7645 67.4299 38.8188 65.9429 30.87C64.3461 22.3404 63.0736 14.8505 70.8404 7.91456Z" fill="#FF8822"/>
<path opacity="0.1" d="M30.8971 200C42.5633 200 52.0207 198.092 52.0207 195.739C52.0207 193.386 42.5633 191.478 30.8971 191.478C19.2308 191.478 9.77344 193.386 9.77344 195.739C9.77344 198.092 19.2308 200 30.8971 200Z" fill="#FF8822"/>
<path opacity="0.1" d="M208.874 186.482C220.54 186.482 229.997 185.644 229.997 184.61C229.997 183.576 220.54 182.738 208.874 182.738C197.207 182.738 187.75 183.576 187.75 184.61C187.75 185.644 197.207 186.482 208.874 186.482Z" fill="#FF8822"/>
<path d="M125.184 39.0969H62.5879V52.9419H125.184V39.0969Z" fill="#464A5F"/>
<path opacity="0.1" d="M125.184 39.0969H62.5879V39.456H125.184V39.0969Z" fill="black"/>
<path d="M128.509 8.43701H59.5361V39.0947H128.509V8.43701Z" fill="#65617D"/>
<path d="M33.91 8.43701H60.6138V73.2619H29.1807V13.1789C29.1807 11.9232 29.6789 10.719 30.5659 9.83106C31.4528 8.94315 32.6557 8.44433 33.91 8.44433V8.43701Z" fill="#65617D"/>
<path opacity="0.1" d="M56.6159 12.5271H33.8955V69.8889H56.6159V12.5271Z" fill="black"/>
<path d="M56.2575 12.1685H33.5371V69.5303H56.2575V12.1685Z" fill="#D1D9EC"/>
<path opacity="0.1" d="M56.2568 68.9251C57.5345 68.9251 58.5703 67.8881 58.5703 66.609C58.5703 65.3299 57.5345 64.293 56.2568 64.293C54.9791 64.293 53.9434 65.3299 53.9434 66.609C53.9434 67.8881 54.9791 68.9251 56.2568 68.9251Z" fill="black"/>
<path d="M56.2568 68.5637C57.5345 68.5637 58.5703 67.5268 58.5703 66.2477C58.5703 64.9686 57.5345 63.9316 56.2568 63.9316C54.9791 63.9316 53.9434 64.9686 53.9434 66.2477C53.9434 67.5268 54.9791 68.5637 56.2568 68.5637Z" fill="#464A5F"/>
<path d="M126.803 8.43701H153.265C153.919 8.43733 154.566 8.56659 155.169 8.81739C155.773 9.06819 156.321 9.43562 156.783 9.89867C157.244 10.3617 157.61 10.9113 157.86 11.516C158.109 12.1208 158.237 12.7688 158.236 13.423V73.2619H126.803V8.43701Z" fill="#65617D"/>
<path opacity="0.1" d="M154.238 12.5271H131.518V69.8889H154.238V12.5271Z" fill="black"/>
<path d="M153.88 12.1685H131.159V69.5303H153.88V12.1685Z" fill="#D1D9EC"/>
<path opacity="0.1" d="M153.882 68.9251C155.16 68.9251 156.195 67.8881 156.195 66.609C156.195 65.3299 155.16 64.293 153.882 64.293C152.604 64.293 151.568 65.3299 151.568 66.609C151.568 67.8881 152.604 68.9251 153.882 68.9251Z" fill="black"/>
<path d="M153.882 68.5637C155.16 68.5637 156.195 67.5268 156.195 66.2477C156.195 64.9686 155.16 63.9316 153.882 63.9316C152.604 63.9316 151.568 64.9686 151.568 66.2477C151.568 67.5268 152.604 68.5637 153.882 68.5637Z" fill="#464A5F"/>
<path opacity="0.1" d="M89.6435 12.5271H65.1045V37.0933H89.6435V12.5271Z" fill="black"/>
<path d="M89.2851 12.1685H64.7461V36.7347H89.2851V12.1685Z" fill="#D1D9EC"/>
<path opacity="0.1" d="M89.2849 38.5797C90.1035 38.5797 90.7671 37.9154 90.7671 37.0959C90.7671 36.2764 90.1035 35.6121 89.2849 35.6121C88.4663 35.6121 87.8027 36.2764 87.8027 37.0959C87.8027 37.9154 88.4663 38.5797 89.2849 38.5797Z" fill="black"/>
<path d="M89.2849 38.2208C90.1035 38.2208 90.7671 37.5565 90.7671 36.737C90.7671 35.9175 90.1035 35.2532 89.2849 35.2532C88.4663 35.2532 87.8027 35.9175 87.8027 36.737C87.8027 37.5565 88.4663 38.2208 89.2849 38.2208Z" fill="#464A5F"/>
<path opacity="0.1" d="M97.3243 37.0957H121.863V12.5295L97.3243 12.5295V37.0957Z" fill="black"/>
<path d="M97.6827 36.7371H122.222V12.1709L97.6827 12.1709V36.7371Z" fill="#D1D9EC"/>
<path opacity="0.1" d="M97.6834 38.5797C98.5019 38.5797 99.1655 37.9154 99.1655 37.0959C99.1655 36.2764 98.5019 35.6121 97.6834 35.6121C96.8648 35.6121 96.2012 36.2764 96.2012 37.0959C96.2012 37.9154 96.8648 38.5797 97.6834 38.5797Z" fill="black"/>
<path d="M97.6834 38.2208C98.5019 38.2208 99.1655 37.5565 99.1655 36.737C99.1655 35.9175 98.5019 35.2532 97.6834 35.2532C96.8648 35.2532 96.2012 35.9175 96.2012 36.737C96.2012 37.5565 96.8648 38.2208 97.6834 38.2208Z" fill="#464A5F"/>
<path opacity="0.1" d="M94.0215 8.43701H93.0342V39.0947H94.0215V8.43701Z" fill="black"/>
<path opacity="0.1" d="M68.8782 50.7847H64.7461V52.044H68.8782V50.7847Z" fill="black"/>
<path d="M68.8782 50.4233H64.7461V51.6827H68.8782V50.4233Z" fill="#53526B"/>
<path opacity="0.1" d="M116.744 49.2544H95.1016V52.0415H116.744V49.2544Z" fill="black"/>
<path d="M116.744 48.8955H95.1016V51.6826H116.744V48.8955Z" fill="#53526B"/>
<path opacity="0.1" d="M107.464 51.1873C107.761 51.1873 108.002 50.9459 108.002 50.648C108.002 50.3501 107.761 50.1086 107.464 50.1086C107.166 50.1086 106.925 50.3501 106.925 50.648C106.925 50.9459 107.166 51.1873 107.464 51.1873Z" fill="black"/>
<path d="M107.464 50.8285C107.761 50.8285 108.002 50.587 108.002 50.2891C108.002 49.9912 107.761 49.7498 107.464 49.7498C107.166 49.7498 106.925 49.9912 106.925 50.2891C106.925 50.587 107.166 50.8285 107.464 50.8285Z" fill="#B65256"/>
<path opacity="0.1" d="M110.548 51.1873C110.845 51.1873 111.086 50.9459 111.086 50.648C111.086 50.3501 110.845 50.1086 110.548 50.1086C110.25 50.1086 110.009 50.3501 110.009 50.648C110.009 50.9459 110.25 51.1873 110.548 51.1873Z" fill="black"/>
<path d="M110.548 50.8285C110.845 50.8285 111.086 50.587 111.086 50.2891C111.086 49.9912 110.845 49.7498 110.548 49.7498C110.25 49.7498 110.009 49.9912 110.009 50.2891C110.009 50.587 110.25 50.8285 110.548 50.8285Z" fill="#FFD77C"/>
<path d="M165.376 114.782H22.043V175.92H165.376V114.782Z" fill="#65617D"/>
<path opacity="0.1" d="M165.376 114.782H22.043V116.042H165.376V114.782Z" fill="black"/>
<path d="M167.263 112.444H20.1562V115.68H167.263V112.444Z" fill="#65617D"/>
<path opacity="0.1" d="M167.263 112.444H20.1562V112.984H167.263V112.444Z" fill="black"/>
<path d="M169.986 111.546H17.4307V112.625H169.986V111.546Z" fill="#65617D"/>
<path opacity="0.1" d="M58.0542 116.94H26.6211V126.65H58.0542V116.94Z" fill="black"/>
<path d="M58.4146 116.581H26.9814V126.292H58.4146V116.581Z" fill="#D1D9EC"/>
<path opacity="0.1" d="M58.0542 131.055H26.6211V150.745H58.0542V131.055Z" fill="black"/>
<path d="M58.4146 130.694H26.9814V150.384H58.4146V130.694Z" fill="#D1D9EC"/>
<path opacity="0.1" d="M58.0542 153.711H26.6211V173.401H58.0542V153.711Z" fill="black"/>
<path d="M58.4146 153.352H26.9814V173.042H58.4146V153.352Z" fill="#D1D9EC"/>
<path opacity="0.1" d="M46.8276 120.896H37.8467V122.694H46.8276V120.896Z" fill="black"/>
<path d="M46.8276 120.537H37.8467V122.336H46.8276V120.537Z" fill="#464A5F"/>
<path opacity="0.1" d="M163.85 116.94H132.417V126.65H163.85V116.94Z" fill="black"/>
<path d="M164.209 116.581H132.775V126.292H164.209V116.581Z" fill="#D1D9EC"/>
<path d="M164.209 129.528H132.775V171.785H164.209V129.528Z" fill="#D1D9EC"/>
<path d="M152.623 120.537H143.643V122.336H152.623V120.537Z" fill="#464A5F"/>
<path opacity="0.1" d="M46.8276 140.405H37.8467V142.204H46.8276V140.405Z" fill="black"/>
<path d="M46.8276 140.046H37.8467V141.845H46.8276V140.046Z" fill="#464A5F"/>
<path opacity="0.1" d="M46.8276 161.264H37.8467V163.063H46.8276V161.264Z" fill="black"/>
<path d="M46.8276 160.905H37.8467V162.704H46.8276V160.905Z" fill="#464A5F"/>
<path opacity="0.1" d="M160.3 133.977H137.399V168.051H160.3V133.977Z" fill="black"/>
<path opacity="0.3" d="M159.942 133.618H137.041V167.693H159.942V133.618Z" fill="#FF8822"/>
<path opacity="0.1" d="M167.263 175.317H20.1562V181.43H167.263V175.317Z" fill="black"/>
<path d="M167.263 175.561H20.1562V181.674H167.263V175.561Z" fill="#65617D"/>
<path d="M130.081 119.741H61.1084V164.246H130.081V119.741Z" fill="#464A5F"/>
<path opacity="0.1" d="M61.915 123.339C61.915 123.339 100.623 127.295 129.001 123.517V127.024C129.001 127.024 99.9912 130.621 61.915 126.394V123.339Z" fill="black"/>
<path d="M61.915 122.978C61.915 122.978 100.623 126.934 129.001 123.158V126.665C129.001 126.665 99.9912 130.26 61.915 126.035V122.978Z" fill="#D1D9EC"/>
<path opacity="0.3" d="M122.312 131.519H68.875V156.964H122.312V131.519Z" fill="#FF8822"/>
<path opacity="0.1" d="M130.081 119.741H61.1084V121.091H130.081V119.741Z" fill="black"/>
<path d="M131.159 110.482H60.0312V120.732H131.159V110.482Z" fill="#464A5F"/>
<path opacity="0.1" d="M65.8673 117.762C67.3052 117.762 68.4708 116.595 68.4708 115.156C68.4708 113.716 67.3052 112.549 65.8673 112.549C64.4293 112.549 63.2637 113.716 63.2637 115.156C63.2637 116.595 64.4293 117.762 65.8673 117.762Z" fill="black"/>
<path d="M65.8673 117.403C67.3052 117.403 68.4708 116.236 68.4708 114.797C68.4708 113.357 67.3052 112.19 65.8673 112.19C64.4293 112.19 63.2637 113.357 63.2637 114.797C63.2637 116.236 64.4293 117.403 65.8673 117.403Z" fill="#D1D9EC"/>
<path opacity="0.1" d="M72.2442 117.762C73.6821 117.762 74.8478 116.595 74.8478 115.156C74.8478 113.716 73.6821 112.549 72.2442 112.549C70.8063 112.549 69.6406 113.716 69.6406 115.156C69.6406 116.595 70.8063 117.762 72.2442 117.762Z" fill="black"/>
<path d="M72.2442 117.403C73.6821 117.403 74.8478 116.236 74.8478 114.797C74.8478 113.357 73.6821 112.19 72.2442 112.19C70.8063 112.19 69.6406 113.357 69.6406 114.797C69.6406 116.236 70.8063 117.403 72.2442 117.403Z" fill="#D1D9EC"/>
<path opacity="0.1" d="M119.123 117.762C120.561 117.762 121.727 116.595 121.727 115.156C121.727 113.716 120.561 112.549 119.123 112.549C117.685 112.549 116.52 113.716 116.52 115.156C116.52 116.595 117.685 117.762 119.123 117.762Z" fill="black"/>
<path d="M119.123 117.403C120.561 117.403 121.727 116.236 121.727 114.797C121.727 113.357 120.561 112.19 119.123 112.19C117.685 112.19 116.52 113.357 116.52 114.797C116.52 116.236 117.685 117.403 119.123 117.403Z" fill="#D1D9EC"/>
<path opacity="0.1" d="M125.501 117.762C126.939 117.762 128.105 116.595 128.105 115.156C128.105 113.716 126.939 112.549 125.501 112.549C124.063 112.549 122.897 113.716 122.897 115.156C122.897 116.595 124.063 117.762 125.501 117.762Z" fill="black"/>
<path d="M125.501 117.403C126.939 117.403 128.105 116.236 128.105 114.797C128.105 113.357 126.939 112.19 125.501 112.19C124.063 112.19 122.897 113.357 122.897 114.797C122.897 116.236 124.063 117.403 125.501 117.403Z" fill="#D1D9EC"/>
<path opacity="0.1" d="M105.206 112.278H85.3574V118.482H105.206V112.278Z" fill="black"/>
<path d="M104.936 111.919H85.7158V118.123H104.936V111.919Z" fill="#53526B"/>
<path opacity="0.1" d="M66.5863 111.626H65.8672V117.964H66.5863V111.626Z" fill="black"/>
<path d="M66.2279 111.626H65.5088V117.964H66.2279V111.626Z" fill="#53526B"/>
<path opacity="0.1" d="M126.22 111.626H125.501V117.964H126.22V111.626Z" fill="black"/>
<path d="M125.862 111.626H125.143V117.964H125.862V111.626Z" fill="#53526B"/>
<path opacity="0.1" d="M121.618 113.17L121.109 112.661L116.633 117.143L117.141 117.652L121.618 113.17Z" fill="black"/>
<path d="M121.618 112.81L121.109 112.301L116.633 116.783L117.141 117.292L121.618 112.81Z" fill="#53526B"/>
<path opacity="0.1" d="M75.4092 115.517V114.797H69.0782V115.517H75.4092Z" fill="black"/>
<path d="M75.4111 115.156V114.436H69.0801V115.156H75.4111Z" fill="#53526B"/>
<path opacity="0.1" d="M130.081 163.195H61.1084V164.244H130.081V163.195Z" fill="black"/>
<path d="M131.159 163.556H60.0312V181.867H131.159V163.556Z" fill="#464A5F"/>
<path d="M56.8814 94.7602C56.5377 94.0915 54.7191 89.9499 54.7191 89.9499L51.6742 82.0476C51.6742 82.0476 49.5119 78.7163 49.5119 78.0964C49.5119 77.4765 45.5797 75.0018 45.5797 75.0018C45.5797 75.0018 42.3862 74.05 42.14 73.9548C41.8938 73.8596 38.1103 72.6052 38.1103 72.6052C38.1103 72.6052 36.6208 70.6528 36.4038 71.158L36.3819 71.1214C36.077 70.5516 35.8842 69.9286 35.8139 69.2861C35.8139 69.23 35.7968 69.169 35.7895 69.1104C36.7711 68.4447 37.5757 67.5492 38.1335 66.5018C38.6913 65.4543 38.9854 64.2864 38.9903 63.0994C38.9927 62.7895 38.9756 62.4798 38.9391 62.172C38.9654 62.155 38.9932 62.1403 39.022 62.1281C39.083 62.1012 39.0683 62.0793 39.022 62.0573L39.0683 62.0354C39.1512 61.9987 39.0976 61.9719 39.0171 61.9402C39.1293 61.8914 38.9879 61.8596 38.8757 61.8084C38.8757 61.7767 38.8636 61.7425 38.8562 61.7108C38.8828 61.6488 38.8985 61.5828 38.9026 61.5155L38.9318 61.5302C38.961 61.4074 38.961 61.2795 38.9318 61.1568C38.9259 61.1819 38.9177 61.2064 38.9074 61.23C38.9027 61.1123 38.8762 60.9964 38.8294 60.8883C38.7724 60.8039 38.7024 60.729 38.6222 60.6662L38.6027 60.6516L38.8124 58.5161C41.884 58.3697 42.4228 53.147 41.7231 52.8468C41.0235 52.5466 41.7231 51.9243 41.7231 50.665C41.7231 49.4057 39.4047 48 39.4047 48C39.4047 48 38.4296 48.4881 36.9255 46.0622C35.4214 43.6363 29.8559 43.2507 29.4853 43.8804C29.1148 44.51 26.6282 45.3447 23.3908 46.255C20.1534 47.1653 20.7506 51.0042 21.2894 51.8291C21.7338 52.5099 21.9942 53.2945 22.0451 54.1061C22.0451 54.5942 23.069 56.6247 23.069 56.6247C22.7448 57.33 23.5565 61.1934 23.8003 62.2916C23.8003 62.3258 23.8003 62.3599 23.8003 62.3941C23.7889 62.4115 23.7783 62.4294 23.7686 62.4478C23.7162 62.5622 23.6992 62.6897 23.7199 62.8139C23.7014 62.9489 23.7199 63.0864 23.7735 63.2117C23.7925 64.246 24.0318 65.2643 24.4753 66.1986C24.9188 67.1329 25.5564 67.9617 26.3454 68.6296C26.3454 68.6955 26.3454 68.7614 26.3576 68.8297C26.4015 69.7278 26.4283 70.7821 26.382 71.8023C26.382 71.8535 26.382 71.9048 26.382 71.956C26.2037 71.9928 26.0365 72.0706 25.8935 72.1833C25.7504 72.296 25.6356 72.4404 25.558 72.6052C25.2533 73.1934 23.4859 74.0964 23.4859 74.0964C23.4859 74.0964 20.3898 74.2404 20.0949 74.8114C19.7999 75.3825 15.3289 77.2861 15.3289 77.2861C15.3289 77.2861 12.9691 78.6674 13.3129 80.2391C13.4933 81.0592 12.9886 82.3355 12.467 83.3654C11.3728 82.9513 10.2339 82.667 9.07353 82.5186L11.5796 84.9176L11.4967 85.047L10.0706 90.0939C10.0706 90.0939 9.58303 91.856 9.09547 92.2904C8.60791 92.7248 9.53671 96.6223 9.53671 96.6223C9.53671 96.6223 8.99795 99.385 8.56159 100.098C8.12522 100.81 9.24905 102.575 9.24905 102.575L11.5113 107.714L17.4864 109.232L18.5298 109.455C18.5103 109.577 18.4908 109.699 18.4688 109.823C18.1787 111.461 17.8009 112.966 17.3377 113.374C16.209 114.375 16.2578 118.848 16.2578 118.848L16.3065 125.181C16.3065 125.181 16.699 132.991 16.504 133.274C16.3796 133.455 16.6283 133.747 17.2841 134.006C17.267 134.126 17.2475 134.25 17.2304 134.365C17.0452 135.661 16.9623 137.137 17.3865 137.782C17.5707 138.135 17.6716 138.525 17.6814 138.924C17.6814 139.544 18.6151 140.83 18.6151 140.83C18.6151 140.83 17.8838 146.113 19.1027 147.922C20.3216 149.73 21.3625 153.015 20.7726 153.779C20.7726 153.779 19.7414 156.017 20.2338 157.018C20.7263 158.018 20.2338 158.589 19.5927 158.826C18.9515 159.063 19.01 161.023 19.01 161.023L20.1826 170.296C20.1826 170.296 20.8213 172.203 20.2826 172.869C19.7438 173.535 19.7414 176.866 20.5775 178.011C21.4137 179.156 19.3903 181.269 19.3903 181.269C19.3903 181.269 18.1714 183.031 20.1217 183.602C20.1217 183.602 20.5142 183.697 19.7779 184.459C19.0417 185.22 18.893 186.167 19.3855 186.506C19.4881 186.567 19.5948 186.62 19.7048 186.665C19.6853 186.777 19.6658 186.894 19.6414 187.019C19.4537 188.012 19.0978 189.308 18.4518 189.933C17.1982 191.218 16.1165 192.661 15.2339 194.226C14.5586 195.507 14.2587 196.703 15.012 197.267C16.7819 198.599 19.0417 199.026 20.3752 198.504C21.7087 197.982 23.5687 196.361 23.5687 196.361L24.0124 194.504C24.0124 194.504 23.7174 193.362 25.1899 192.932C26.6623 192.503 28.0397 190.98 28.0397 190.98V188.505C28.3975 188.302 28.7427 188.077 29.0733 187.832C29.0733 187.832 29.7608 185.403 29.0733 184.595C28.3859 183.788 28.1396 183.5 29.0246 182.975C29.9095 182.45 30.0289 181.311 29.378 180.31C28.7271 179.309 27.6959 177.835 28.5809 175.739C29.4658 173.642 29.7998 167.217 29.7998 167.217C29.7998 167.217 29.3878 162.838 29.7998 161.847C30.2118 160.857 29.3268 158.848 29.3268 158.848C29.3268 158.848 29.6096 156.376 30.163 155.221C30.7164 154.067 31.1381 148.032 31.1381 148.032C31.1381 148.032 32.1133 145.462 32.1133 143.795C32.1133 142.128 30.5921 138.131 32.8446 137.081C32.8446 137.081 33.8197 137.94 33.4346 141.367C33.4346 141.367 34.5633 145.367 34.5633 146.604C34.5633 147.841 35.3994 152.317 35.3994 152.317C35.3994 152.317 35.4969 153.745 35.8407 154.27C36.1844 154.794 35.8407 156.222 35.8407 156.222C35.8407 156.222 37.1181 157.413 36.7744 158.174C36.4306 158.936 36.8329 160.654 36.8329 160.654L36.5281 171.314C36.5281 171.314 35.6457 175.885 37.708 178.636C37.708 178.636 36.9767 182.682 36.5281 182.968C36.0796 183.253 38.1517 185.73 38.1517 185.73C38.1517 185.73 37.5788 187.334 38.7417 187.412V190.062C39.1443 190.776 39.6975 191.393 40.3628 191.871C41.4428 192.632 41.0015 195.251 41.0015 195.251C41.0015 195.251 42.3764 198.584 46.0136 197.869C49.6509 197.154 50.1409 196.822 49.9434 195.631C49.8727 195.197 49.7167 194.411 49.49 193.542C49.0999 192.015 48.5002 190.17 47.7835 189.259C46.6548 187.824 45.7211 184.825 45.7211 184.825C45.7211 184.825 45.2774 183.824 45.7211 183.492C46.1648 183.16 45.9649 182.541 45.9649 182.541C45.9649 182.541 46.3939 181.303 46.0063 180.542C45.6187 179.78 46.7499 178.209 46.7499 178.209L46.4061 170.887L46.7499 160.222C46.7499 160.222 45.2262 158.46 45.8649 157.413C46.5037 156.366 45.1336 154.89 45.1336 154.89C45.1336 154.89 44.9849 154.843 45.3774 153.652C45.6123 152.95 45.5767 152.186 45.2774 151.509C45.2774 151.509 44.4437 148.559 45.9161 146.321C45.9161 146.321 46.5548 143.368 46.7523 141.845C46.8888 140.786 47.7274 136.832 48.2418 134.523L48.3247 134.148C49.056 134.187 49.6021 134.233 49.6021 134.233C49.6021 134.233 48.4734 126.377 49.6021 124.759C50.7308 123.141 48.7172 110.763 48.7172 110.763C48.7172 110.763 48.2296 108.6 47.9395 106.392C47.9225 106.267 47.9078 106.148 47.8908 106.016C48.8029 105.941 49.7187 105.921 50.6333 105.955C52.9931 106.096 55.3017 105.193 55.3505 104.288C55.3992 103.383 56.6791 99.8121 56.8741 99.0042C57.0691 98.1964 57.2227 95.4264 56.8814 94.7602Z" fill="url(#paint0_linear)"/>
<path d="M28.2129 186.599V191.007C28.2129 191.007 26.8867 192.525 25.4655 192.959C24.0442 193.394 24.3295 194.524 24.3295 194.524L23.9053 196.371C23.9053 196.371 22.1037 197.982 20.8263 198.504C19.5489 199.026 17.3695 198.599 15.6655 197.272C14.9342 196.713 15.2291 195.519 15.88 194.245C16.7264 192.694 17.7685 191.258 18.9809 189.972C19.6026 189.35 19.956 188.059 20.1267 187.07C20.2632 186.338 20.3046 185.755 20.3046 185.755L28.2129 186.599Z" fill="#4C495A"/>
<path opacity="0.1" d="M28.2129 189.889V191.007C28.2129 191.007 26.8867 192.525 25.4655 192.959C24.0442 193.393 24.3295 194.523 24.3295 194.523L23.9053 196.371C23.9053 196.371 22.1037 197.982 20.8263 198.504C19.5489 199.026 17.3695 198.599 15.6655 197.271C14.9342 196.713 15.2291 195.519 15.88 194.245C15.8483 195.585 16.2457 197.088 18.174 197.035C20.2582 196.964 22.2654 196.229 23.9029 194.936C23.9029 194.936 23.8541 191.81 26.0335 191.097C26.83 190.836 27.5696 190.426 28.2129 189.889Z" fill="black"/>
<path d="M45.5385 197.882C42.0354 198.592 40.7092 195.273 40.7092 195.273C40.7092 195.273 41.1358 192.666 40.0949 191.907C39.4505 191.427 38.9175 190.812 38.5322 190.106V185.747L42.7935 182.714L45.0997 184.757L45.2557 184.893C45.2557 184.893 46.1553 187.88 47.245 189.308C47.9349 190.214 48.5126 192.051 48.8905 193.574C49.1074 194.448 49.2586 195.222 49.3268 195.653C49.517 196.837 49.0441 197.169 45.5385 197.882Z" fill="#4C495A"/>
<path opacity="0.1" d="M45.5385 197.882C42.0354 198.592 40.7092 195.273 40.7092 195.273C40.7092 195.273 41.1358 192.666 40.0949 191.907C39.4505 191.426 38.9175 190.812 38.5322 190.106V188.417C39.2075 189.132 40.4825 190.516 40.7579 191.102C41.1358 191.907 41.1846 194.848 42.9349 195.368C44.6853 195.888 48.0958 196.364 48.381 195.036C48.4981 194.531 48.6689 194.04 48.8905 193.572C49.1074 194.445 49.2586 195.219 49.3268 195.651C49.517 196.837 49.0441 197.169 45.5385 197.882Z" fill="black"/>
<path opacity="0.1" d="M20.3025 185.747L28.2132 186.599V188.93C27.3209 189.459 26.0435 190.021 25.3244 189.442C24.2639 188.593 21.1118 187.514 20.127 187.063C20.261 186.321 20.3025 185.747 20.3025 185.747Z" fill="black"/>
<path opacity="0.1" d="M45.2557 185.272C44.166 184.893 42.2255 186.553 39.6682 187.595C39.3122 187.759 38.9243 187.843 38.5322 187.839V185.738L42.7935 182.704L45.0997 184.747C45.1352 184.926 45.1875 185.102 45.2557 185.272Z" fill="black"/>
<path d="M48.0488 133.086C48.0488 133.086 47.8976 133.781 47.6855 134.794C47.198 137.098 46.3789 141.037 46.2497 142.091C46.0595 143.607 45.4452 146.545 45.4452 146.545C44.0239 148.774 44.8284 151.712 44.8284 151.712C45.1159 152.388 45.1497 153.146 44.9235 153.845C44.5456 155.031 44.6797 155.065 44.6797 155.065C44.6797 155.065 46.0059 156.529 45.3891 157.579C44.7723 158.628 46.2423 160.376 46.2423 160.376L45.9108 170.992L46.2521 178.304C46.2521 178.304 45.1624 179.868 45.5354 180.627C45.9084 181.386 45.4939 182.619 45.4939 182.619C45.4939 182.619 45.6841 183.234 45.2502 183.565C44.8162 183.897 45.2502 184.893 45.2502 184.893C44.1605 184.515 42.22 186.172 39.6627 187.217C37.1054 188.261 37.9562 185.794 37.9562 185.794C37.9562 185.794 35.967 183.329 36.3936 183.043C36.8202 182.758 37.5296 178.731 37.5296 178.731C35.5404 175.983 36.3936 171.431 36.3936 171.431L36.6861 160.817C36.6861 160.817 36.2985 159.109 36.6301 158.35C36.9616 157.591 35.7305 156.398 35.7305 156.398C35.7305 156.398 36.062 154.977 35.7305 154.445C35.399 153.913 35.3039 152.493 35.3039 152.493C35.3039 152.493 34.4994 148.037 34.4994 146.804C34.4994 145.572 33.4097 141.591 33.4097 141.591C33.79 138.174 32.8417 137.325 32.8417 137.325C30.6647 138.367 32.1323 142.348 32.1323 144.007C32.1323 145.667 31.1864 148.227 31.1864 148.227C31.1864 148.227 30.7598 154.245 30.2381 155.382C29.7164 156.52 29.4312 159.011 29.4312 159.011C29.4312 159.011 30.2844 161.003 29.8846 161.999C29.4848 162.994 29.8846 167.368 29.8846 167.368C29.8846 167.368 29.5726 173.767 28.7218 175.851C27.871 177.935 28.8632 179.407 29.4897 180.403C30.1162 181.398 29.9992 182.536 29.146 183.055C28.2928 183.575 28.5317 183.863 29.1947 184.669C29.8578 185.474 29.1947 187.893 29.1947 187.893C29.1947 187.893 26.4961 190.026 25.3113 189.076C24.1265 188.127 20.3406 186.897 19.8677 186.565C19.3948 186.233 19.5361 185.284 20.2455 184.527C20.9549 183.77 20.5771 183.673 20.5771 183.673C18.6829 183.104 19.8677 181.35 19.8677 181.35C19.8677 181.35 21.8179 179.265 21.0037 178.128C20.1895 176.991 20.1992 173.672 20.7185 173.003C21.2377 172.334 20.6234 170.443 20.6234 170.443L19.4947 161.201C19.4947 161.201 19.4411 159.248 20.0554 159.019C20.6697 158.789 21.1451 158.213 20.6722 157.218C20.1992 156.222 21.1914 153.996 21.1914 153.996C21.7619 153.237 20.7672 149.967 19.5825 148.166C18.3977 146.365 19.1095 141.103 19.1095 141.103C19.1095 141.103 18.21 139.822 18.21 139.207C18.2008 138.811 18.1034 138.422 17.9248 138.069C17.5176 137.418 17.5956 135.949 17.7736 134.653C17.9467 133.406 18.21 132.329 18.21 132.329L48.0488 133.086Z" fill="#5F5D7E"/>
<path d="M38.7686 79.3801L29.4318 81.562C29.4318 81.562 24.8487 77.6742 25.9847 75.5949C26.3748 74.8798 26.5478 73.6571 26.6063 72.3637C26.6527 71.3533 26.6259 70.2966 26.5844 69.4033C26.5162 68.1123 26.4113 67.1581 26.4113 67.1581C26.4113 67.1581 35.9749 61.7548 35.6433 67.1581C35.5757 68.0585 35.5969 68.9634 35.7067 69.8597C35.7748 70.4989 35.9616 71.1197 36.2576 71.6901C36.7696 72.6004 37.401 72.615 37.401 72.615L38.7686 79.3801Z" fill="#FDC2CC"/>
<path opacity="0.1" d="M35.7065 69.8524C34.3586 70.8206 32.7226 71.3026 31.0657 71.2197C29.4088 71.1368 27.829 70.4939 26.5842 69.396C26.516 68.105 26.4111 67.1507 26.4111 67.1507C26.4111 67.1507 35.9747 61.7474 35.6431 67.1507C35.5755 68.0512 35.5967 68.9561 35.7065 69.8524Z" fill="black"/>
<path d="M31.4306 71.0386C35.4831 71.0386 38.7684 67.7497 38.7684 63.6926C38.7684 59.6356 35.4831 56.3467 31.4306 56.3467C27.378 56.3467 24.0928 59.6356 24.0928 63.6926C24.0928 67.7497 27.378 71.0386 31.4306 71.0386Z" fill="#FDC2CC"/>
<path opacity="0.1" d="M38.7686 79.38L29.4318 81.5618C29.4318 81.5618 24.8487 77.6741 25.9847 75.5948C26.3748 74.8797 26.5478 73.657 26.6063 72.3635C26.814 73.489 27.4198 74.5019 28.3128 75.2165C30.4435 76.6393 30.1119 78.3891 30.1119 78.3891L33.9466 78.2476C33.7028 76.6832 35.1314 75.8315 35.6043 75.6411C36.0772 75.4508 35.8481 74.599 35.8481 74.599L36.2576 71.6899C36.7696 72.6003 37.401 72.6149 37.401 72.6149L38.7686 79.38Z" fill="black"/>
<path opacity="0.1" d="M48.0496 133.086C48.0496 133.086 47.8984 133.782 47.6863 134.795C46.6552 134.741 45.2924 134.699 44.6878 134.838C43.6469 135.082 39.4782 135.17 39.4782 135.17L29.1566 135.536V135.219C27.9697 135.231 26.7845 135.313 25.6071 135.463C23.8543 135.707 21.1094 135.368 19.3566 135.082C18.8172 135.005 18.2892 134.863 17.7842 134.658C17.9573 133.411 18.2205 132.334 18.2205 132.334L48.0496 133.086Z" fill="black"/>
<path d="M47.2448 102.985C47.0936 103.871 47.2033 105.34 47.3935 106.787C47.6787 108.983 48.1443 111.138 48.1443 111.138C48.1443 111.138 50.0946 123.463 48.9951 125.074C47.8957 126.685 48.9951 134.506 48.9951 134.506C48.9951 134.506 45.7284 134.223 44.6875 134.46C43.6466 134.697 39.4779 134.792 39.4779 134.792L29.1562 135.158V134.838C27.9693 134.85 26.7841 134.932 25.6068 135.082C23.854 135.326 21.109 134.987 19.3562 134.704C17.6034 134.421 16.894 133.85 17.0842 133.567C17.2743 133.284 16.894 125.513 16.894 125.513L16.8477 119.209C16.8477 119.209 16.799 114.753 17.8887 113.757C18.3323 113.352 18.698 111.854 18.9784 110.221C19.3782 107.861 19.5927 105.225 19.5927 105.225L12.3963 85.945L12.2549 85.5643C12.2549 85.5643 14.3368 82.3404 14.0052 80.776C13.6737 79.2117 15.9555 77.8474 15.9555 77.8474C15.9555 77.8474 20.2631 75.9511 20.5483 75.3825C20.8335 74.8138 23.815 74.6723 23.815 74.6723C23.815 74.6723 25.5214 73.7718 25.8115 73.1885C25.8834 73.0253 25.9929 72.8816 26.131 72.7692C26.2692 72.6568 26.4321 72.5788 26.6063 72.5417C26.8069 73.68 27.4132 74.7067 28.3127 75.4313C30.4434 76.8517 30.1118 78.604 30.1118 78.604L33.9465 78.4624C33.7027 76.898 35.1313 76.0439 35.6042 75.8559C36.0772 75.668 35.848 74.8114 35.848 74.8114L36.2917 71.7437C36.4965 71.2336 37.9299 73.186 37.9299 73.186C37.9299 73.186 41.5866 74.4331 41.8133 74.5283C42.04 74.6235 45.1287 75.5704 45.1287 75.5704C45.1287 75.5704 48.9147 78.0353 48.9147 78.6503C48.9147 79.2653 50.999 82.5869 50.999 82.5869C50.999 82.5869 50.9746 82.7187 50.9283 82.9603C50.4334 85.5448 47.5909 100.947 47.2448 102.985Z" fill="#FF8822"/>
<path d="M32.0938 95.3068C32.0938 95.3068 23.9027 93.1274 23.0958 92.6052C22.2889 92.0829 17.5571 95.1165 23.3396 99.2409C23.3396 99.2409 30.4093 100.705 32.2937 99.2409C34.1781 97.7766 32.0938 95.3068 32.0938 95.3068Z" fill="#FDC2CC"/>
<path opacity="0.1" d="M49.7991 82.3184L50.7937 82.3672L53.7191 90.2354C53.7191 90.2354 55.4719 94.3599 55.8034 95.0237C56.135 95.6875 55.9936 98.4404 55.8034 99.2409C55.6133 100.041 54.3822 103.602 54.3407 104.503C54.2993 105.403 52.0687 106.304 49.7942 106.162C47.5197 106.021 42.2199 106.731 42.2199 106.731C42.2199 106.731 36.5569 106.138 33.0806 107.914C33.0806 107.914 30.8573 103.317 31.0938 94.7357C31.0938 94.7357 35.0235 94.4917 36.0182 94.8773C37.0128 95.2629 41.8421 96.3416 42.4564 95.7778C43.0707 95.214 45.8693 96.8223 45.8693 96.8223C46.0119 96.5098 46.0857 96.1702 46.0857 95.8266C46.0857 95.483 46.0119 95.1434 45.8693 94.8309C45.3964 93.6936 44.5919 90.1378 45.6256 89.0005C46.6592 87.8632 49.7991 82.3184 49.7991 82.3184Z" fill="black"/>
<path opacity="0.1" d="M47.3937 106.787C45.0437 106.946 42.4157 107.299 42.4157 107.299C42.4157 107.299 36.7527 106.706 33.2764 108.483C33.2764 108.483 31.0507 103.885 31.2871 95.3043C31.2871 95.3043 35.2169 95.0602 36.2115 95.4458C37.2061 95.8314 42.0354 96.9101 42.6522 96.3464C43.269 95.7826 46.0651 97.3909 46.0651 97.3909C46.2071 97.0782 46.2806 96.7387 46.2806 96.3952C46.2806 96.0517 46.2071 95.7122 46.0651 95.3995C45.5922 94.2622 44.7877 90.7064 45.8213 89.5691C46.855 88.4318 49.9876 82.8845 49.9876 82.8845L50.9115 82.9284C50.4239 85.5422 47.5888 100.944 47.2426 102.982C47.0939 103.87 47.2036 105.34 47.3937 106.787Z" fill="black"/>
<path d="M49.99 82.5088L50.9846 82.5576L53.91 90.4258C53.91 90.4258 55.6628 94.5478 55.9943 95.2116C56.3259 95.8755 56.182 98.6284 55.9943 99.4313C55.8066 100.234 54.5731 103.792 54.5316 104.693C54.4902 105.594 52.2572 106.494 49.9851 106.35C47.7131 106.206 42.4108 106.921 42.4108 106.921C42.4108 106.921 36.7454 106.328 33.2715 108.105C33.2715 108.105 31.0458 103.507 31.2822 94.9261C31.2822 94.9261 35.212 94.6821 36.2066 95.0677C37.2012 95.4533 42.0305 96.532 42.6473 95.9682C43.2641 95.4044 46.0602 97.0103 46.0602 97.0103C46.2023 96.6981 46.2758 96.3589 46.2758 96.0158C46.2758 95.6727 46.2023 95.3335 46.0602 95.0213C45.5873 93.8816 44.7828 90.3282 45.8165 89.1909C46.8501 88.0536 49.99 82.5088 49.99 82.5088Z" fill="#FF8822"/>
<path d="M39.9983 99.9187L41.1797 100.651L47.7642 90.0071L46.5828 89.2747L39.9983 99.9187Z" fill="#DFE6F5"/>
<path d="M51.1295 88.5757C52.2935 86.6942 52.1691 84.5067 50.8516 83.6898C49.5341 82.873 47.5225 83.7362 46.3585 85.6178C45.1946 87.4993 45.319 89.6868 46.6365 90.5036C47.954 91.3205 49.9656 90.4573 51.1295 88.5757Z" fill="#DFE6F5"/>
<path opacity="0.1" d="M50.4554 88.1578C51.2904 86.808 51.2009 85.2385 50.2555 84.6523C49.31 84.0661 47.8666 84.6852 47.0315 86.0351C46.1965 87.385 46.286 88.9544 47.2315 89.5406C48.1769 90.1268 49.6203 89.5077 50.4554 88.1578Z" fill="black"/>
<path d="M36.6331 105.36L37.8145 106.093L41.9115 99.4699L40.7301 98.7374L36.6331 105.36Z" fill="#53526B"/>
<path d="M29.6756 105.83L32.5644 105.025C32.5644 105.025 46.8158 105.403 42.0328 99.5265C42.0328 99.5265 39.5243 97.108 34.2684 99.0506C29.0125 100.993 27.5449 101.232 27.5449 101.232L29.6756 105.83Z" fill="#FDC2CC"/>
<path opacity="0.1" d="M27.5475 81.0396C27.8612 81.0396 28.1155 80.785 28.1155 80.471C28.1155 80.1569 27.8612 79.9023 27.5475 79.9023C27.2338 79.9023 26.9795 80.1569 26.9795 80.471C26.9795 80.785 27.2338 81.0396 27.5475 81.0396Z" fill="black"/>
<path opacity="0.1" d="M37.3004 80.7076C37.6141 80.7076 37.8684 80.453 37.8684 80.1389C37.8684 79.8249 37.6141 79.5703 37.3004 79.5703C36.9867 79.5703 36.7324 79.8249 36.7324 80.1389C36.7324 80.453 36.9867 80.7076 37.3004 80.7076Z" fill="black"/>
<path d="M27.5475 80.8492C27.8612 80.8492 28.1155 80.5946 28.1155 80.2806C28.1155 79.9665 27.8612 79.7119 27.5475 79.7119C27.2338 79.7119 26.9795 79.9665 26.9795 80.2806C26.9795 80.5946 27.2338 80.8492 27.5475 80.8492Z" fill="white"/>
<path opacity="0.1" d="M28.3541 88.9078C28.6678 88.9078 28.9222 88.6532 28.9222 88.3391C28.9222 88.0251 28.6678 87.7705 28.3541 87.7705C28.0404 87.7705 27.7861 88.0251 27.7861 88.3391C27.7861 88.6532 28.0404 88.9078 28.3541 88.9078Z" fill="black"/>
<path opacity="0.1" d="M37.5866 88.3392C37.9003 88.3392 38.1546 88.0846 38.1546 87.7705C38.1546 87.4565 37.9003 87.2019 37.5866 87.2019C37.2729 87.2019 37.0186 87.4565 37.0186 87.7705C37.0186 88.0846 37.2729 88.3392 37.5866 88.3392Z" fill="black"/>
<path d="M28.3541 88.7176C28.6678 88.7176 28.9222 88.463 28.9222 88.149C28.9222 87.8349 28.6678 87.5803 28.3541 87.5803C28.0404 87.5803 27.7861 87.8349 27.7861 88.149C27.7861 88.463 28.0404 88.7176 28.3541 88.7176Z" fill="white"/>
<path opacity="0.1" d="M37.3493 115.788C37.663 115.788 37.9173 115.533 37.9173 115.219C37.9173 114.905 37.663 114.65 37.3493 114.65C37.0356 114.65 36.7812 114.905 36.7812 115.219C36.7812 115.533 37.0356 115.788 37.3493 115.788Z" fill="black"/>
<path opacity="0.1" d="M29.8707 115.788C30.1844 115.788 30.4388 115.533 30.4388 115.219C30.4388 114.905 30.1844 114.65 29.8707 114.65C29.557 114.65 29.3027 114.905 29.3027 115.219C29.3027 115.533 29.557 115.788 29.8707 115.788Z" fill="black"/>
<path d="M37.3493 115.597C37.663 115.597 37.9173 115.343 37.9173 115.029C37.9173 114.715 37.663 114.46 37.3493 114.46C37.0356 114.46 36.7812 114.715 36.7812 115.029C36.7812 115.343 37.0356 115.597 37.3493 115.597Z" fill="white"/>
<path opacity="0.1" d="M30.4381 125.311C30.7518 125.311 31.0061 125.056 31.0061 124.742C31.0061 124.428 30.7518 124.173 30.4381 124.173C30.1244 124.173 29.8701 124.428 29.8701 124.742C29.8701 125.056 30.1244 125.311 30.4381 125.311Z" fill="black"/>
<path opacity="0.1" d="M37.5866 124.742C37.9003 124.742 38.1546 124.487 38.1546 124.173C38.1546 123.859 37.9003 123.605 37.5866 123.605C37.2729 123.605 37.0186 123.859 37.0186 124.173C37.0186 124.487 37.2729 124.742 37.5866 124.742Z" fill="black"/>
<path d="M30.4381 125.123C30.7518 125.123 31.0061 124.868 31.0061 124.554C31.0061 124.24 30.7518 123.985 30.4381 123.985C30.1244 123.985 29.8701 124.24 29.8701 124.554C29.8701 124.868 30.1244 125.123 30.4381 125.123Z" fill="white"/>
<path d="M29.8707 115.597C30.1844 115.597 30.4388 115.343 30.4388 115.029C30.4388 114.715 30.1844 114.46 29.8707 114.46C29.557 114.46 29.3027 114.715 29.3027 115.029C29.3027 115.343 29.557 115.597 29.8707 115.597Z" fill="white"/>
<path d="M37.5866 124.552C37.9003 124.552 38.1546 124.297 38.1546 123.983C38.1546 123.669 37.9003 123.414 37.5866 123.414C37.2729 123.414 37.0186 123.669 37.0186 123.983C37.0186 124.297 37.2729 124.552 37.5866 124.552Z" fill="white"/>
<path d="M37.3004 80.5174C37.6141 80.5174 37.8684 80.2628 37.8684 79.9488C37.8684 79.6347 37.6141 79.3801 37.3004 79.3801C36.9867 79.3801 36.7324 79.6347 36.7324 79.9488C36.7324 80.2628 36.9867 80.5174 37.3004 80.5174Z" fill="white"/>
<path d="M37.5866 88.1488C37.9003 88.1488 38.1546 87.8942 38.1546 87.5801C38.1546 87.2661 37.9003 87.0115 37.5866 87.0115C37.2729 87.0115 37.0186 87.2661 37.0186 87.5801C37.0186 87.8942 37.2729 88.1488 37.5866 88.1488Z" fill="white"/>
<path opacity="0.1" d="M38.4365 107.536C38.4365 107.536 38.5318 120.525 38.8176 122.846C38.8176 122.846 38.9202 108.149 38.4365 107.536Z" fill="black"/>
<path opacity="0.1" d="M40.8525 113.557C40.6575 113.557 44.7335 128.771 44.9236 129.862C45.1138 130.953 41.9885 113.557 40.8525 113.557Z" fill="black"/>
<path opacity="0.1" d="M44.0703 111.092C44.0703 111.234 46.3448 119.339 47.4833 119.766C48.6217 120.193 44.0703 111.092 44.0703 111.092Z" fill="black"/>
<path opacity="0.1" d="M53.0195 95.3069C53.0195 95.3069 48.1902 95.5217 48.0488 96.2197C47.9074 96.9177 53.0195 95.3069 53.0195 95.3069Z" fill="black"/>
<path opacity="0.1" d="M44.4975 157.108C44.4975 157.108 41.0407 158.572 41.5722 158.67C42.1036 158.767 44.4975 157.108 44.4975 157.108Z" fill="black"/>
<path opacity="0.1" d="M37.3471 154.936C37.213 154.633 39.6679 156.156 39.6679 156.359C39.6679 156.561 37.5372 155.363 37.3471 154.936Z" fill="black"/>
<path opacity="0.1" d="M40.5674 159.912C40.5674 159.912 43.266 159.778 43.4562 160.818C43.6463 161.857 40.5674 159.912 40.5674 159.912Z" fill="black"/>
<path opacity="0.1" d="M21.1553 159.907C21.1553 159.907 24.0806 159.333 24.3244 159.907C24.5682 160.481 21.1553 159.907 21.1553 159.907Z" fill="black"/>
<path opacity="0.1" d="M22.2447 177.784C22.2447 177.784 22.4373 180.2 21.7255 180.769C21.0136 181.337 22.2447 177.784 22.2447 177.784Z" fill="black"/>
<path opacity="0.1" d="M21.8867 182.902C22.8131 182.997 27.6887 182.142 27.6424 182.902C27.5961 183.662 21.8867 182.902 21.8867 182.902Z" fill="black"/>
<path opacity="0.1" d="M44.2608 179.963C44.2608 179.963 42.5983 179.719 43.0029 180.831L44.2608 179.963Z" fill="black"/>
<path opacity="0.1" d="M13.3425 85.3568H12.443L11.0705 90.3818C11.0705 90.3818 10.5976 92.1365 10.1246 92.5636C9.6517 92.9907 10.5488 96.876 10.5488 96.876C10.5488 96.876 10.0296 99.6264 9.60295 100.337C9.17633 101.047 10.266 102.802 10.266 102.802L12.443 107.927L18.2206 109.445C18.2206 109.445 28.4009 111.673 28.8738 112.005C29.3468 112.337 29.7734 111.861 30.0927 108.781C30.4121 105.701 31.3238 99.7265 32.043 99.4434C32.043 99.4434 26.3605 100.058 25.8875 99.9632C25.4146 99.868 23.1425 100.012 23.1425 100.012C23.1425 100.012 20.1587 99.8217 19.6857 100.107C19.2128 100.393 20.3001 98.7308 20.3001 98.7308C20.4994 97.97 20.4994 97.1706 20.3001 96.4098C19.971 95.1188 19.7832 80.6124 13.3425 85.3568Z" fill="black"/>
<path opacity="0.1" d="M31.8546 100C31.1452 100.283 30.2456 106.258 29.9043 109.337C29.5631 112.417 29.1462 112.893 28.6854 112.561C28.3003 112.29 21.5158 110.77 18.9805 110.209C19.3803 107.849 19.5948 105.213 19.5948 105.213L12.3984 85.9329H13.1566C19.5949 81.191 19.785 95.695 20.1165 96.9763C20.3159 97.737 20.3159 98.5364 20.1165 99.2972C20.1165 99.2972 19.0268 100.957 19.4998 100.674C19.9727 100.391 22.9566 100.578 22.9566 100.578C22.9566 100.578 25.2286 100.437 25.704 100.532C26.1794 100.627 31.8546 100 31.8546 100Z" fill="black"/>
<path d="M13.1546 85.5424H12.255L10.8801 90.5674C10.8801 90.5674 10.4071 92.3197 9.93421 92.7468C9.46127 93.1738 10.3608 97.0713 10.3608 97.0713C10.3608 97.0713 9.83914 99.8194 9.41252 100.532C8.9859 101.245 10.0756 102.994 10.0756 102.994L12.255 108.12L18.0302 109.638C18.0302 109.638 28.2105 111.863 28.6834 112.195C29.1563 112.527 29.5829 112.054 29.9023 108.974C30.2216 105.894 31.1212 99.9194 31.8525 99.6363C31.8525 99.6363 26.1725 100.251 25.6995 100.156C25.2266 100.061 22.9521 100.205 22.9521 100.205C22.9521 100.205 19.9682 100.015 19.4953 100.298C19.0224 100.581 20.1121 98.9212 20.1121 98.9212C20.3115 98.1605 20.3115 97.3611 20.1121 96.6003C19.783 95.3069 19.5928 80.8029 13.1546 85.5424Z" fill="#FF8822"/>
<path opacity="0.1" d="M16.2312 102.702C16.2312 102.702 13.6276 107.632 13.1547 107.063C12.6818 106.494 16.2312 102.702 16.2312 102.702Z" fill="black"/>
<path opacity="0.1" d="M13.5326 99.895C13.5326 99.895 11.1192 101.896 12.2552 102.416C13.3912 102.936 13.5326 99.895 13.5326 99.895Z" fill="black"/>
<path opacity="0.1" d="M15.8047 97.4399C15.9948 97.4888 19.3103 98.1477 19.3566 98.4332C19.4029 98.7188 15.8047 97.4399 15.8047 97.4399Z" fill="black"/>
<path opacity="0.1" d="M38.7903 62.7162C38.6873 62.7523 38.5994 62.8219 38.5406 62.914C38.4819 63.006 38.4556 63.1151 38.4661 63.2238C38.2735 63.3947 38.0005 63.1946 37.8445 62.9798C37.6884 62.765 37.5056 62.4917 37.2643 62.5259C37.1499 62.5624 37.0389 62.6089 36.9327 62.665C36.5549 62.7845 36.2355 62.3404 36.0234 61.9499L34.9142 59.8974C34.1829 60.3294 33.2979 59.8779 32.5642 59.4313C31.8304 58.9847 30.9552 58.5332 30.2117 58.9627C29.122 59.5924 29.083 61.6912 27.9543 62.2086C27.591 62.377 27.1693 62.3404 26.8304 62.5698C26.4916 62.7992 26.3185 63.236 26.1674 63.6534C26.1133 63.8923 25.9833 64.1073 25.7968 64.2659C25.6789 64.3283 25.5474 64.3602 25.4141 64.3587C25.0825 64.4142 24.7419 64.3656 24.439 64.2196C24.2804 64.1193 24.1604 63.9682 24.0984 63.791C24.0365 63.6138 24.0362 63.4208 24.0977 63.2434C24.1068 63.2239 24.1174 63.2051 24.1293 63.1872C24.2503 63.0404 24.3587 62.8836 24.4536 62.7187C24.5682 62.4185 24.4048 62.067 24.4536 61.7424C24.5121 61.186 25.102 60.8907 25.202 60.344C25.2434 60.1293 25.202 59.8999 25.2386 59.6851C25.2452 59.6562 25.2534 59.6277 25.2629 59.5997L24.9168 59.8437C25.3044 59.3922 25.4994 58.7626 25.7822 58.211C26.0979 57.6092 26.5322 57.0776 27.0589 56.6485C27.5856 56.2194 28.1937 55.9016 28.8465 55.7144C30.0825 55.3556 31.3867 55.4532 32.6324 55.7583C33.8179 56.0539 34.9538 56.5218 36.0039 57.147C36.3763 57.3501 36.7071 57.6217 36.979 57.9475C37.2077 58.2851 37.4021 58.6449 37.5592 59.0213C37.9273 59.7827 38.9317 60.4856 38.1321 60.5954C37.4666 60.6833 38.0736 61.1494 38.4222 61.4642C38.5006 61.5267 38.5682 61.6018 38.6221 61.6863C38.6804 61.8059 38.7071 61.9384 38.6999 62.0712C38.6926 62.204 38.6516 62.3328 38.5807 62.4453C38.4295 62.5991 38.9756 62.6332 38.7903 62.7162Z" fill="black"/>
<path d="M38.7903 62.5282C38.6873 62.5643 38.5994 62.6339 38.5406 62.726C38.4818 62.818 38.4556 62.9271 38.4661 63.0358C38.2735 63.2067 38.0005 63.0041 37.8445 62.7918C37.6884 62.5795 37.5056 62.3037 37.2643 62.3379C37.1499 62.3744 37.0389 62.4209 36.9327 62.477C36.5548 62.599 36.2355 62.1524 36.0234 61.7619C35.6529 61.0786 35.2921 60.3928 34.9142 59.7119C34.1829 60.1414 33.2979 59.6899 32.5642 59.2433C31.8304 58.7967 30.9552 58.3452 30.2117 58.7747C29.122 59.4044 29.083 61.5032 27.9543 62.023C27.591 62.189 27.1693 62.1524 26.8304 62.3818C26.4916 62.6112 26.3185 63.048 26.1673 63.4678C26.1133 63.7061 25.9832 63.9202 25.7968 64.0779C25.6791 64.1411 25.5476 64.1738 25.4141 64.1731C25.0825 64.2275 24.7422 64.179 24.4389 64.034C24.281 63.9331 24.1616 63.782 24.0997 63.605C24.0378 63.428 24.0371 63.2353 24.0976 63.0578C24.1067 63.0383 24.1173 63.0195 24.1293 63.0017C24.2244 62.8357 24.3731 62.7186 24.4536 62.5331C24.5681 62.2329 24.4048 61.8815 24.4536 61.5569C24.5121 60.998 25.102 60.7052 25.202 60.156C25.2434 59.9413 25.202 59.7119 25.2385 59.4971C25.2452 59.469 25.2533 59.4413 25.2629 59.4141L24.9167 59.6582C25.3044 59.2042 25.4994 58.5746 25.7822 58.0255C26.0979 57.4233 26.5322 56.8915 27.0588 56.4619C27.5855 56.0324 28.1936 55.7142 28.8465 55.5264C30.0825 55.1676 31.3867 55.2653 32.6324 55.5703C33.8184 55.8656 34.9545 56.3343 36.0039 56.9614C36.3767 57.1629 36.7077 57.4337 36.979 57.7595C37.2077 58.0972 37.4021 58.4569 37.5592 58.8333C37.9273 59.5972 38.9317 60.2976 38.1321 60.4074C37.4666 60.4977 38.0736 60.9638 38.4222 61.2787C38.501 61.3399 38.5686 61.4142 38.6221 61.4983C38.6804 61.6179 38.7071 61.7504 38.6999 61.8832C38.6926 62.016 38.6516 62.1448 38.5807 62.2573C38.4295 62.416 38.9756 62.4428 38.7903 62.5282Z" fill="#865A61"/>
<path opacity="0.1" d="M38.4057 61.2594L38.3301 62.0574C38.3301 62.0574 30.3828 51.9733 24.1908 63.3606C24.1908 63.3606 24.1615 63.2215 24.1104 62.9872C24.2054 62.8213 24.3541 62.7042 24.4346 62.5187C24.5492 62.2185 24.3858 61.8671 24.4346 61.5425C24.4931 60.9836 25.083 60.6907 25.183 60.1416C25.2244 59.9269 25.183 59.6975 25.2196 59.4827C25.2262 59.4546 25.2344 59.4269 25.2439 59.3997L24.8978 59.6438C25.2854 59.1898 25.4804 58.5602 25.7632 58.0111C26.0789 57.4089 26.5132 56.877 27.0398 56.4475C27.5665 56.018 28.1746 55.6998 28.8275 55.512C30.0635 55.1532 31.3677 55.2509 32.6134 55.5559C33.7994 55.8512 34.9355 56.3199 35.9849 56.947C36.3577 57.1484 36.6887 57.4193 36.96 57.745C37.1887 58.0827 37.3831 58.4425 37.5402 58.8189C37.9084 59.5827 38.9127 60.2832 38.1131 60.393C37.45 60.4784 38.0571 60.9519 38.4057 61.2594Z" fill="black"/>
<g opacity="0.1">
<path opacity="0.1" d="M38.6 62.416C38.5612 62.4606 38.5329 62.5134 38.5173 62.5704C38.5016 62.6275 38.4991 62.6873 38.5098 62.7455C38.3172 62.9163 38.0466 62.7138 37.8906 62.5014C37.7346 62.2891 37.5493 62.0133 37.3104 62.0475C37.1958 62.0835 37.0849 62.1301 36.9789 62.1866C36.5986 62.3086 36.2792 61.862 36.0671 61.4715L34.9603 59.4191C34.229 59.851 33.3441 59.3995 32.6103 58.9529C31.8765 58.5063 30.9989 58.0548 30.2578 58.4844C29.1681 59.114 29.1291 61.2128 28.0004 61.7302C27.6347 61.8986 27.213 61.862 26.8766 62.0914C26.5402 62.3208 26.3622 62.7577 26.2135 63.175C26.1584 63.4135 26.0286 63.6282 25.8429 63.7876C25.7253 63.8505 25.5936 63.8825 25.4602 63.8803C25.1289 63.9369 24.7882 63.8892 24.4851 63.7436C24.3018 63.6209 24.1699 63.435 24.1145 63.2214C24.0773 63.3914 24.0928 63.5688 24.159 63.7297C24.2253 63.8906 24.339 64.0275 24.4851 64.1219C24.7883 64.267 25.1286 64.3156 25.4602 64.261C25.5933 64.2608 25.7245 64.229 25.8429 64.1683C26.0281 64.0085 26.1578 63.794 26.2135 63.5557C26.3622 63.136 26.5426 62.6991 26.8766 62.4697C27.2106 62.2403 27.6347 62.2769 28.0004 62.1109C29.1291 61.5936 29.1681 59.4947 30.2578 58.8651C30.9892 58.4331 31.8741 58.887 32.6103 59.3336C33.3465 59.7803 34.2193 60.2293 34.9603 59.7998L36.0671 61.8498C36.2792 62.2403 36.5986 62.6869 36.9789 62.5649C37.0854 62.5102 37.1963 62.4645 37.3104 62.4282C37.5542 62.3965 37.7297 62.6723 37.8906 62.8797C38.0515 63.0871 38.3172 63.2995 38.5098 63.1238C38.4993 63.015 38.5256 62.9059 38.5843 62.8139C38.6431 62.7218 38.731 62.6522 38.834 62.6161C38.9827 62.5576 38.6683 62.5209 38.6 62.416Z" fill="black"/>
<path opacity="0.1" d="M37.9806 60.53C38.0384 60.5071 38.0992 60.4923 38.161 60.4861C38.5121 60.4372 38.5145 60.2736 38.3756 60.0415C38.309 60.0769 38.2361 60.0985 38.161 60.105C37.7807 60.1563 37.8149 60.3322 37.9806 60.53Z" fill="black"/>
<path opacity="0.1" d="M38.7071 62.1186C38.734 61.9963 38.734 61.8696 38.7071 61.7473C38.6901 61.8224 38.6576 61.893 38.6119 61.9549C38.5484 62.0306 38.6216 62.0795 38.7071 62.1186Z" fill="black"/>
<path opacity="0.1" d="M24.4879 61.5715C24.4867 61.5935 24.4867 61.6155 24.4879 61.6375C24.4796 61.8085 24.4919 61.9799 24.5245 62.148C24.5426 61.9551 24.5302 61.7606 24.4879 61.5715Z" fill="black"/>
<path opacity="0.1" d="M25.2585 59.2588C25.1675 59.4276 25.0604 59.5871 24.9385 59.7351L25.2462 59.525C25.2429 59.4361 25.247 59.347 25.2585 59.2588Z" fill="black"/>
</g>
<path d="M24.2005 63.1703C24.2005 63.1703 23.0572 58.0452 23.4204 57.235C23.4204 57.235 22.4453 55.2094 22.4453 54.7261C22.3956 53.9209 22.1441 53.1412 21.7139 52.4589C21.1947 51.6389 20.6242 47.8219 23.7398 46.9116C26.8553 46.0013 29.2468 45.174 29.61 44.5468C29.9732 43.9195 35.3242 44.3027 36.7796 46.7188C38.235 49.1349 39.1686 48.6468 39.1686 48.6468C39.1686 48.6468 41.4017 50.0477 41.4017 51.3021C41.4017 52.5565 40.7264 53.1837 41.4017 53.4717C42.077 53.7597 41.5577 58.9726 38.5958 59.1166L38.3374 61.8671C38.3374 61.8671 30.3828 51.7829 24.2005 63.1703Z" fill="#FF8822"/>
<path opacity="0.1" d="M24.5413 47.9072C24.5413 47.9072 23.8539 51.9365 25.1094 53.2763L24.5413 47.9072Z" fill="black"/>
<path opacity="0.1" d="M27.7589 46.9822C27.7589 46.9822 26.0085 51.297 26.4352 52.1268L27.7589 46.9822Z" fill="black"/>
<path opacity="0.1" d="M29.2758 45.6084C29.2758 45.6084 28.091 51.2216 28.659 51.6755L29.2758 45.6084Z" fill="black"/>
<path opacity="0.1" d="M31.3112 47.1238C31.3112 47.1238 29.8485 50.7284 30.436 51.2238L31.3112 47.1238Z" fill="black"/>
<path opacity="0.1" d="M34.0809 47.5508C34.0809 47.5508 32.3525 50.4794 32.7084 51.0114L34.0809 47.5508Z" fill="black"/>
<path opacity="0.1" d="M37.6327 50.4185C37.6327 50.4185 35.7848 50.9066 36.17 51.5094L37.6327 50.4185Z" fill="black"/>
<path opacity="0.1" d="M39.3856 53.4766C39.3856 53.4766 37.7279 54.2819 38.035 54.709L39.3856 53.4766Z" fill="black"/>
<path opacity="0.1" d="M23.4199 57.235C23.4199 57.235 34.0049 52.9323 38.588 59.1166C38.588 59.1166 33.0249 54.382 23.4199 57.235Z" fill="black"/>
<path d="M19.5977 92.6003L21.0725 91.1067L25.2412 95.2336L23.7663 96.7272L19.9316 92.9322L19.5977 92.6003Z" fill="#53526B"/>
<path d="M9.92969 83.0264C9.92969 83.0264 16.3826 83.5755 22.3918 90.3479L19.8881 92.8836L9.92969 83.0264Z" fill="#DFE6F5"/>
<path d="M29.2832 95.1312C29.2832 95.1312 23.079 92.8664 22.4695 92.3246C21.8601 91.7828 18.2716 94.9335 22.6475 99.2166C22.6475 99.2166 28.0107 100.742 29.4295 99.2166C30.8483 97.6913 29.2832 95.1312 29.2832 95.1312Z" fill="#FDC2CC"/>
<path d="M210.436 124.74H209.176V153.157H210.436V124.74Z" fill="#535461"/>
<path d="M218.362 153.069L218.282 154.35L218.172 156.156L218.126 156.908L218.013 158.716L217.965 159.471L217.853 161.277L216.582 181.823C216.527 182.707 216.138 183.537 215.493 184.144C214.848 184.751 213.996 185.089 213.111 185.089H206.505C205.62 185.088 204.768 184.751 204.124 184.144C203.479 183.537 203.09 182.707 203.036 181.823L201.763 161.277L201.651 159.471L201.605 158.716L201.49 156.908L201.446 156.156L201.334 154.35L201.253 153.069C201.238 152.824 201.273 152.577 201.357 152.346C201.44 152.114 201.57 151.903 201.738 151.723C201.907 151.544 202.11 151.401 202.336 151.303C202.561 151.206 202.804 151.156 203.05 151.156H216.568C216.813 151.156 217.056 151.206 217.282 151.304C217.507 151.402 217.71 151.545 217.878 151.724C218.046 151.903 218.176 152.115 218.259 152.346C218.342 152.578 218.377 152.824 218.362 153.069Z" fill="#65617D"/>
<path d="M218.281 154.35L218.169 156.156H201.443L201.331 154.35H218.281Z" fill="#9D9CB5"/>
<path d="M218.123 156.908L218.011 158.716H201.602L201.49 156.908H218.123Z" fill="#9D9CB5"/>
<path d="M217.962 159.47L217.853 161.276H201.761L201.648 159.47H217.962Z" fill="#9D9CB5"/>
<path d="M199.405 135.387C206.748 140.705 209.805 149.023 209.805 149.023C209.805 149.023 200.958 148.72 193.616 143.409C186.273 138.099 183.216 129.774 183.216 129.774C183.216 129.774 192.063 130.072 199.405 135.387Z" fill="#FF8822"/>
<path d="M183.216 129.774C183.216 129.774 192.399 134.877 195.344 139.102C198.289 143.326 209.805 149.03 209.805 149.03" stroke="#535461" stroke-width="2" stroke-miterlimit="10"/>
<path d="M204.145 124.676C208.14 127.57 209.805 132.097 209.805 132.097C209.805 132.097 204.991 131.932 200.993 129.04C196.995 126.148 195.332 121.618 195.332 121.618C195.332 121.618 200.149 121.781 204.145 124.676Z" fill="#FF8822"/>
<path d="M195.332 121.618C195.332 121.618 200.322 124.405 201.934 126.694C203.545 128.983 209.805 132.097 209.805 132.097" stroke="#535461" stroke-width="2" stroke-miterlimit="10"/>
<path d="M215.612 131.868C211.022 136.918 210.052 143.519 210.052 143.519C210.052 143.519 216.524 141.928 221.115 136.879C225.705 131.829 226.675 125.228 226.675 125.228C226.675 125.228 220.203 126.816 215.612 131.868Z" fill="#FF8822"/>
<path d="M226.675 125.228C226.675 125.228 220.695 130.404 219.176 133.972C217.658 137.54 210.052 143.519 210.052 143.519" stroke="#535461" stroke-width="2" stroke-miterlimit="10"/>
</g>
<defs>
<linearGradient id="paint0_linear" x1="32.7593" y1="198.714" x2="32.7593" y2="43.6046" gradientUnits="userSpaceOnUse">
<stop stop-color="#808080" stop-opacity="0.25"/>
<stop offset="0.54" stop-color="#808080" stop-opacity="0.12"/>
<stop offset="1" stop-color="#808080" stop-opacity="0.1"/>
</linearGradient>
<clipPath id="clip0">
<rect width="230" height="200" fill="white"/>
</clipPath>
</defs>
</svg>
